<svg width="191" height="135" viewBox="0 0 191 135" fill="none" xmlns="http://www.w3.org/2000/svg">
<path d="M21.4875 17.2969C21.4875 12.8586 23.2483 8.60219 26.3825 5.46388C29.5167 2.32558 33.7676 0.5625 38.2 0.5625C42.6324 0.5625 46.8833 2.32558 50.0175 5.46388C53.1517 8.60219 54.9125 12.8586 54.9125 17.2969C54.9125 21.7351 53.1517 25.9916 50.0175 29.1299C46.8833 32.2682 42.6324 34.0312 38.2 34.0312C33.7676 34.0312 29.5167 32.2682 26.3825 29.1299C23.2483 25.9916 21.4875 21.7351 21.4875 17.2969ZM19.1 64.4221C16.1156 67.7689 14.325 72.2215 14.325 77.0625C14.325 81.9035 16.1156 86.3561 19.1 89.7029V64.4221ZM62.1944 49.6898C53.3308 57.549 47.75 69.0539 47.75 81.8438C47.75 92.0936 51.3313 101.507 57.3 108.888V115.312C57.3 120.602 53.0323 124.875 47.75 124.875H28.65C23.3677 124.875 19.1 120.602 19.1 115.312V107.304C7.81906 101.925 0 90.4201 0 77.0625C0 58.565 14.9517 43.5938 33.425 43.5938H42.975C50.1375 43.5938 56.7628 45.835 62.1944 49.66V49.6898ZM133.7 115.312V108.888C139.669 101.507 143.25 92.0936 143.25 81.8438C143.25 69.0539 137.669 57.549 128.806 49.66C134.237 45.835 140.863 43.5938 148.025 43.5938H157.575C176.048 43.5938 191 58.565 191 77.0625C191 90.4201 183.181 101.925 171.9 107.304V115.312C171.9 120.602 167.632 124.875 162.35 124.875H143.25C137.968 124.875 133.7 120.602 133.7 115.312ZM136.088 17.2969C136.088 12.8586 137.848 8.60219 140.982 5.46388C144.117 2.32558 148.368 0.5625 152.8 0.5625C157.232 0.5625 161.483 2.32558 164.618 5.46388C167.752 8.60219 169.512 12.8586 169.512 17.2969C169.512 21.7351 167.752 25.9916 164.618 29.1299C161.483 32.2682 157.232 34.0312 152.8 34.0312C148.368 34.0312 144.117 32.2682 140.982 29.1299C137.848 25.9916 136.088 21.7351 136.088 17.2969ZM171.9 64.4221V89.7328C174.884 86.3561 176.675 81.9334 176.675 77.0924C176.675 72.2514 174.884 67.7988 171.9 64.452V64.4221ZM95.5 0.5625C100.566 0.5625 105.424 2.57745 109.006 6.16408C112.588 9.75072 114.6 14.6152 114.6 19.6875C114.6 24.7598 112.588 29.6243 109.006 33.2109C105.424 36.7976 100.566 38.8125 95.5 38.8125C90.4344 38.8125 85.5762 36.7976 81.9943 33.2109C78.4123 29.6243 76.4 24.7598 76.4 19.6875C76.4 14.6152 78.4123 9.75072 81.9943 6.16408C85.5762 2.57745 90.4344 0.5625 95.5 0.5625ZM71.625 81.8438C71.625 86.6848 73.4156 91.1074 76.4 94.4842V69.2033C73.4156 72.5801 71.625 77.0027 71.625 81.8438ZM114.6 69.2033V94.5141C117.584 91.1373 119.375 86.7147 119.375 81.8736C119.375 77.0326 117.584 72.5801 114.6 69.2332V69.2033ZM133.7 81.8438C133.7 95.2014 125.881 106.706 114.6 112.085V124.875C114.6 130.164 110.332 134.438 105.05 134.438H85.95C80.6677 134.438 76.4 130.164 76.4 124.875V112.085C65.1191 106.706 57.3 95.2014 57.3 81.8438C57.3 63.3463 72.2517 48.375 90.725 48.375H100.275C118.748 48.375 133.7 63.3463 133.7 81.8438Z" fill="url(#paint0_linear_6_36)"/>
<defs>
<linearGradient id="paint0_linear_6_36" x1="134.5" y1="100.5" x2="2.13557e-05" y2="1" gradientUnits="userSpaceOnUse">
<stop stop-color="#AD0000"/>
<stop offset="1" stop-color="#FF0000"/>
</linearGradient>
</defs>
</svg>
