<svg width="30" height="25" viewBox="0 0 30 25" fill="none" xmlns="http://www.w3.org/2000/svg">
<g clip-path="url(#clip0_3_20)">
<path d="M9.75002 17.1875C15.136 17.1875 19.5 13.3398 19.5 8.59375C19.5 3.84766 15.136 0 9.75002 0C4.36409 0 2.47395e-05 3.84766 2.47395e-05 8.59375C2.47395e-05 10.4785 0.689087 12.2217 1.85627 13.6426C1.69221 14.1016 1.44846 14.5068 1.19065 14.8486C0.96565 15.1514 0.735962 15.3857 0.567212 15.5469C0.482837 15.625 0.412525 15.6885 0.36565 15.7275C0.342212 15.7471 0.323462 15.7617 0.314087 15.7666L0.304712 15.7764C0.0468997 15.9766 -0.0656003 16.3281 0.0375247 16.6455C0.14065 16.9629 0.426587 17.1875 0.750025 17.1875C1.7719 17.1875 2.80315 16.9141 3.66096 16.5771C4.09221 16.4062 4.49534 16.2158 4.8469 16.0205C6.28596 16.7627 7.9594 17.1875 9.75002 17.1875ZM21 8.59375C21 14.0771 16.3547 18.208 10.8516 18.7012C11.9906 22.334 15.7688 25 20.25 25C22.0406 25 23.7141 24.5752 25.1578 23.833C25.5094 24.0283 25.9078 24.2188 26.3391 24.3896C27.1969 24.7266 28.2281 25 29.25 25C29.5735 25 29.8641 24.7803 29.9625 24.458C30.061 24.1357 29.9531 23.7842 29.6907 23.584L29.6813 23.5742C29.6719 23.5645 29.6531 23.5547 29.6297 23.5352C29.5828 23.4961 29.5125 23.4375 29.4281 23.3545C29.2594 23.1934 29.0297 22.959 28.8047 22.6562C28.5469 22.3145 28.3031 21.9043 28.1391 21.4502C29.3063 20.0342 29.9953 18.291 29.9953 16.4014C29.9953 11.8701 26.0156 8.1543 20.9672 7.83203C20.986 8.08105 20.9953 8.33496 20.9953 8.58887L21 8.59375Z" fill="white"/>
</g>
<defs>
<clipPath id="clip0_3_20">
<rect width="30" height="25" fill="white"/>
</clipPath>
</defs>
</svg>
