<svg width="27" height="23" viewBox="0 0 27 23" fill="none" xmlns="http://www.w3.org/2000/svg">
<g clip-path="url(#clip0_3_4)">
<path d="M26.9906 11.4775C26.9906 12.2861 26.2875 12.9195 25.4906 12.9195H23.9906L24.0234 20.116C24.0234 20.2373 24.0141 20.3586 24 20.4799V21.2031C24 22.1959 23.1609 23 22.125 23H21.375C21.3234 23 21.2719 23 21.2203 22.9955C21.1547 23 21.0891 23 21.0234 23H19.5H18.375C17.3391 23 16.5 22.1959 16.5 21.2031V20.125V17.25C16.5 16.4549 15.8297 15.8125 15 15.8125H12C11.1703 15.8125 10.5 16.4549 10.5 17.25V20.125V21.2031C10.5 22.1959 9.66094 23 8.625 23H7.5H6.00469C5.93438 23 5.86406 22.9955 5.79375 22.991C5.7375 22.9955 5.68125 23 5.625 23H4.875C3.83906 23 3 22.1959 3 21.2031V16.1719C3 16.1314 3 16.0865 3.00469 16.0461V12.9195H1.5C0.65625 12.9195 0 12.2906 0 11.4775C0 11.0732 0.140625 10.7139 0.46875 10.3994L12.4875 0.359375C12.8156 0.0449219 13.1906 0 13.5187 0C13.8469 0 14.2219 0.0898438 14.5031 0.314453L26.475 10.3994C26.85 10.7139 27.0375 11.0732 26.9906 11.4775Z" fill="white"/>
</g>
<defs>
<clipPath id="clip0_3_4">
<rect width="27" height="23" fill="white"/>
</clipPath>
</defs>
</svg>
