<svg width="130" height="130" viewBox="0 0 130 130" fill="none" xmlns="http://www.w3.org/2000/svg">
<path d="M0 65C0 47.7609 6.8482 31.2279 19.0381 19.0381C31.2279 6.8482 47.7609 0 65 0C82.2391 0 98.7721 6.8482 110.962 19.0381C123.152 31.2279 130 47.7609 130 65C130 82.2391 123.152 98.7721 110.962 110.962C98.7721 123.152 82.2391 130 65 130C47.7609 130 31.2279 123.152 19.0381 110.962C6.8482 98.7721 0 82.2391 0 65ZM73.125 24.375C73.125 22.2201 72.269 20.1535 70.7452 18.6298C69.2215 17.106 67.1549 16.25 65 16.25C62.8451 16.25 60.7785 17.106 59.2548 18.6298C57.731 20.1535 56.875 22.2201 56.875 24.375C56.875 26.5299 57.731 28.5965 59.2548 30.1202C60.7785 31.644 62.8451 32.5 65 32.5C67.1549 32.5 69.2215 31.644 70.7452 30.1202C72.269 28.5965 73.125 26.5299 73.125 24.375ZM65 105.625C73.9629 105.625 81.25 98.3379 81.25 89.375C81.25 84.957 79.498 80.9707 76.6543 78.0508L92.9297 41.0566C94.2754 37.9844 92.8789 34.3789 89.8066 33.0332C86.7344 31.6875 83.1289 33.084 81.7832 36.1562L65.4824 73.125C65.3301 73.125 65.1523 73.125 65 73.125C56.0371 73.125 48.75 80.4121 48.75 89.375C48.75 98.3379 56.0371 105.625 65 105.625ZM44.6875 36.5625C44.6875 34.4076 43.8315 32.341 42.3077 30.8173C40.784 29.2935 38.7174 28.4375 36.5625 28.4375C34.4076 28.4375 32.341 29.2935 30.8173 30.8173C29.2935 32.341 28.4375 34.4076 28.4375 36.5625C28.4375 38.7174 29.2935 40.784 30.8173 42.3077C32.341 43.8315 34.4076 44.6875 36.5625 44.6875C38.7174 44.6875 40.784 43.8315 42.3077 42.3077C43.8315 40.784 44.6875 38.7174 44.6875 36.5625ZM24.375 73.125C26.5299 73.125 28.5965 72.269 30.1202 70.7452C31.644 69.2215 32.5 67.1549 32.5 65C32.5 62.8451 31.644 60.7785 30.1202 59.2548C28.5965 57.731 26.5299 56.875 24.375 56.875C22.2201 56.875 20.1535 57.731 18.6298 59.2548C17.106 60.7785 16.25 62.8451 16.25 65C16.25 67.1549 17.106 69.2215 18.6298 70.7452C20.1535 72.269 22.2201 73.125 24.375 73.125ZM113.75 65C113.75 62.8451 112.894 60.7785 111.37 59.2548C109.847 57.731 107.78 56.875 105.625 56.875C103.47 56.875 101.403 57.731 99.8798 59.2548C98.356 60.7785 97.5 62.8451 97.5 65C97.5 67.1549 98.356 69.2215 99.8798 70.7452C101.403 72.269 103.47 73.125 105.625 73.125C107.78 73.125 109.847 72.269 111.37 70.7452C112.894 69.2215 113.75 67.1549 113.75 65Z" fill="url(#paint0_linear_6_38)"/>
<defs>
<linearGradient id="paint0_linear_6_38" x1="15.5" y1="24.5" x2="91.5" y2="88" gradientUnits="userSpaceOnUse">
<stop stop-color="#FF0000"/>
<stop offset="1" stop-color="#A30000"/>
</linearGradient>
</defs>
</svg>
