<svg width="161" height="130" viewBox="0 0 161 130" fill="none" xmlns="http://www.w3.org/2000/svg">
<path d="M18.7666 95.0287C29.2567 104.124 45.9353 115.815 60.5511 113.598C62.0856 113.371 63.595 112.968 65.0792 112.464C62.7648 109.365 60.7272 106.316 58.9914 103.545C53.4822 94.7264 51.7464 84.5979 52.4759 74.9229C47.2937 75.9559 42.6147 78.1983 38.7155 81.3225C37.0803 82.6326 34.615 81.65 34.9923 79.5588C36.6023 71.1184 43.2939 64.2149 52.1489 62.8543C52.803 62.7535 53.4822 62.678 54.1362 62.6528L59.0166 29.5713C59.5197 26.0944 61.0291 21.3324 65.3056 18.0067C69.9847 14.4037 78.1102 10.3221 91.3675 9.11272C91.1663 8.93636 90.965 8.75999 90.7637 8.58362C85.6822 4.65315 72.5506 -1.89763 44.1995 2.41077C15.8484 6.71917 5.15704 16.8729 1.43391 22.1387C4.41074e-06 24.1543 -0.201246 26.6991 0.150942 29.1682L6.23875 70.5641C7.62235 79.9619 11.6473 88.8559 18.7666 95.0539V95.0287ZM40.8286 39.6998C41.9355 38.9188 43.5455 39.1959 43.797 40.5313C43.8222 40.6572 43.8473 40.8084 43.8725 40.9344C44.6775 46.427 40.9544 51.5164 35.5458 52.3479C30.1372 53.1793 25.1059 49.3748 24.3009 43.9074C24.2758 43.7815 24.2758 43.6303 24.2506 43.5043C24.0997 42.1438 25.5588 41.3879 26.8417 41.8162C29.1058 42.5721 31.5711 42.7989 34.0616 42.4209C36.552 42.043 38.8664 41.0856 40.8034 39.6998H40.8286ZM65.8088 99.2616C73.2047 111.078 85.808 127.203 100.424 129.42C115.04 131.638 131.743 119.972 142.208 110.851C149.327 104.679 153.352 95.7846 154.736 86.3615L160.824 44.9656C161.176 42.4965 160.975 39.9518 159.541 37.9362C155.818 32.6703 145.126 22.5166 116.775 18.2082C88.4242 13.8998 75.3178 20.4506 70.2363 24.3811C68.2741 25.8928 67.3433 28.2612 66.9911 30.7303L60.9033 72.1262C59.5197 81.524 60.8027 91.2242 65.8339 99.2616H65.8088ZM101.757 60.2844C99.82 58.8987 97.5308 57.9412 95.0152 57.5633C92.4995 57.1854 90.0342 57.4121 87.7953 58.168C86.5123 58.5963 85.0533 57.8405 85.2042 56.4799C85.2294 56.3539 85.2294 56.2028 85.2545 56.0768C86.0595 50.5842 91.0908 46.8049 96.4994 47.6364C101.908 48.4678 105.631 53.5572 104.826 59.0498C104.801 59.1758 104.776 59.327 104.751 59.453C104.499 60.7883 102.889 61.0655 101.782 60.2844H101.757ZM136.02 64.1897C135.768 65.525 134.158 65.8022 133.051 65.0211C131.114 63.6354 128.825 62.678 126.31 62.3C123.794 61.9221 121.329 62.1489 119.09 62.9047C117.807 63.333 116.348 62.5772 116.499 61.2166C116.524 61.0906 116.524 60.9395 116.549 60.8135C117.354 55.3209 122.385 51.5416 127.794 52.3731C133.202 53.2045 136.925 58.294 136.12 63.7865C136.095 63.9125 136.07 64.0637 136.045 64.1897H136.02ZM133.328 89.2338C128.397 100.496 116.524 107.5 103.946 105.586C91.3675 103.671 82.0345 93.4414 80.5503 81.2217C80.2988 79.1305 82.7892 78.1731 84.3741 79.5336C90.3864 84.7742 97.8578 88.4276 106.26 89.6873C114.662 90.9471 122.888 89.7125 130.133 86.4623C132.045 85.6057 134.158 87.2686 133.303 89.2086L133.328 89.2338Z" fill="url(#paint0_linear_6_37)"/>
<defs>
<linearGradient id="paint0_linear_6_37" x1="3.84394e-07" y1="6.5" x2="137" y2="110" gradientUnits="userSpaceOnUse">
<stop stop-color="#FF0000"/>
<stop offset="1" stop-color="#AC0000"/>
</linearGradient>
</defs>
</svg>
